<svg height="512" viewBox="0 0 512 512" width="512" xmlns="http://www.w3.org/2000/svg"><g id="filled_outline" data-name="filled outline"><circle cx="256" cy="256" fill="#ff421d" r="232"/><path d="m440.749 115.713c-31.642 165.087-164.676 294.144-331.849 319.681a231.035 231.035 0 0 0 147.1 52.606c128.13 0 232-103.87 232-232a230.937 230.937 0 0 0 -47.251-140.287z" fill="#bf3216"/><circle cx="256" cy="256" fill="#fadbb7" r="200"/><path d="m430.3 157.952a400.75 400.75 0 0 1 -278.945 268.492 199.035 199.035 0 0 0 104.645 29.556c110.457 0 200-89.543 200-200a199.014 199.014 0 0 0 -25.7-98.048z" fill="#fbbd75"/><path d="m40 200h128a154.51 154.51 0 0 1 -45.255 109.255 26.509 26.509 0 0 0 0 37.49 154.51 154.51 0 0 1 45.255 109.255h-128a154.51 154.51 0 0 1 45.255-109.255 26.509 26.509 0 0 0 0-37.49 154.51 154.51 0 0 1 -45.255-109.255z" fill="#ccc"/><rect fill="#0071bc" height="32" rx="16" width="160" x="24" y="168"/><rect fill="#0071bc" height="32" rx="16" width="160" x="24" y="456"/><path d="m118.439 314.9a26.519 26.519 0 0 1 4.306-5.64 154.457 154.457 0 0 0 17.746-21.26h-72.983a154.473 154.473 0 0 0 17.747 21.255 26.518 26.518 0 0 1 4.3 5.633 17.5 17.5 0 0 0 28.884.012z" fill="#6cbbc7"/><circle cx="256" cy="256" fill="#ff421d" r="16"/><path d="m95.781 456h72.219a154.422 154.422 0 0 0 -24.65-83.533 119.745 119.745 0 0 1 -47.569 83.533z" fill="#b3b3b3"/><path d="m40 456 64-64 64 64z" fill="#6cbbc7"/><path d="m129.4 417.4a120.423 120.423 0 0 1 -33.619 38.6h72.219z" fill="#56959f"/><path d="m168 456h-72.219a119.259 119.259 0 0 1 -69.621 23.891 15.929 15.929 0 0 0 13.84 8.109h128a16 16 0 0 0 0-32z" fill="#005a97"/><path d="m425.706 86.294a240.057 240.057 0 0 0 -389.892 74.079 23.975 23.975 0 0 0 -13.328 40.011 240.642 240.642 0 0 0 28.158 179.886 161.385 161.385 0 0 0 -18.5 69.057 24 24 0 0 0 7.856 46.673h128a23.979 23.979 0 0 0 19.439-9.95 240.03 240.03 0 0 0 238.267-399.756zm-385.706 89.706h128a8 8 0 0 1 0 16h-128a8 8 0 0 1 0-16zm77.088 127.6a34.444 34.444 0 0 0 -5.337 6.888 9.357 9.357 0 0 1 -7.741 4.023 9.385 9.385 0 0 1 -7.763-4.03 34.484 34.484 0 0 0 -5.333-6.881q-3.692-3.692-7.081-7.6h40.338q-3.396 3.9-7.083 7.6zm19.187-23.6h-64.55a145.2 145.2 0 0 1 -23.5-72h111.555a145.2 145.2 0 0 1 -23.505 72zm-56.675 34.912a18.473 18.473 0 0 1 2.63 22.839 189.206 189.206 0 0 1 -12.03-33.078q4.461 5.282 9.4 10.239zm11.312 37.488a34.358 34.358 0 0 0 10-22.081 25.574 25.574 0 0 0 3.091.188h.007a25.4 25.4 0 0 0 3.068-.187 34.36 34.36 0 0 0 10 22.08 145.4 145.4 0 0 1 41.455 82.827l-48.886-48.886a8 8 0 0 0 -11.314 0l-48.876 48.888a145.4 145.4 0 0 1 41.455-82.829zm13.088 50.913 44.686 44.687h-89.372zm65.157 5.776 5.771 3.331 8-13.856-13.856-8-3.926 6.8a162.106 162.106 0 0 0 -36.746-56.276 18.507 18.507 0 0 1 0-26.176 161.341 161.341 0 0 0 47.453-108.239 24 24 0 0 0 -7.853-46.673h-78.314a191.968 191.968 0 0 1 166.314-96c105.869 0 192 86.131 192 192s-86.131 192-192 192a189.989 189.989 0 0 1 -82.135-18.419 161.544 161.544 0 0 0 -4.708-20.492zm-137.157-153.089a226.166 226.166 0 0 1 2.039-30.183 160.737 160.737 0 0 0 14.564 45.9 205.5 205.5 0 0 0 22.144 78.954 162.909 162.909 0 0 0 -10.677 13.968 223.427 223.427 0 0 1 -28.07-108.639zm136 224h-128a8 8 0 0 1 0-16h128a8 8 0 0 1 0 16zm246.392-65.608a224.313 224.313 0 0 1 -222.428 56.308 24.045 24.045 0 0 0 -16.109-21.377c-.018-.454-.028-.909-.05-1.362a205.932 205.932 0 0 0 80.195 16.039c114.691 0 208-93.309 208-208s-93.309-208-208-208a207.9 207.9 0 0 0 -184.538 112h-17.91a224.027 224.027 0 1 1 360.84 254.392z"/><path d="m248 80h16v32h-16z"/><path d="m400 248h32v16h-32z"/><path d="m248 400h16v32h-16z"/><path d="m164 102.508h15.999v16h-15.999z" transform="matrix(.866 -.5 .5 .866 -32.21 100.805)"/><path d="m332 393.492h15.999v16h-15.999z" transform="matrix(.866 -.5 .5 .866 -155.195 223.789)"/><path d="m393.493 332h16v16h-16z" transform="matrix(.5 -.866 .866 .5 -93.702 517.703)"/><path d="m393.493 164h16v16h-16z" transform="matrix(.866 -.5 .5 .866 -32.21 223.789)"/><path d="m332 102.508h16v15.999h-16z" transform="matrix(.5 -.866 .866 .5 74.29 349.695)"/><path d="m269.369 275.921 48.1 25.6-13.182 3.532 4.141 15.455 32.785-8.784a8 8 0 0 0 5.657-9.8l-8.785-32.784-15.455 4.141 4.02 15-47.665-25.374a23.988 23.988 0 0 0 -14.985-29.531v-86.062l10.343 10.343 11.314-11.314-24-24a8 8 0 0 0 -11.314 0l-24 24 11.314 11.314 10.343-10.343v86.062a24 24 0 1 0 21.369 42.545zm-21.369-19.921a8 8 0 1 1 8 8 8.009 8.009 0 0 1 -8-8z"/></g></svg>